<?xml version="1.0" encoding="UTF-8"?>
<svg id="Layer_1" data-name="Layer 1" xmlns="http://www.w3.org/2000/svg" version="1.1" viewBox="0 0 781.3 740.4">
  <defs>
    <style>
      .cls-1 {
        fill: #fff;
        stroke-width: 0px;
      }
    </style>
  </defs>
  <path class="cls-1" d="M146.8,218.1c-3.8-59.6-7.5-118.2-11.3-178.4,42.5,41.2,84,81.5,126.1,122.4C284.3,107.9,306.8,54.3,329.6,0c10.8,16.3,21.1,31.8,31.4,47.4,24.2,36.7,48.5,73.3,72.6,110.1,2,3.1,4.4,3.4,7.5,3.4,111,0,222,0,333,0h7.2c-4.3,10.2-8.2,19.7-12.2,29.2-35.1,82.9-70.5,165.7-105,248.9-19.7,47.5-41.9,93.9-64.2,140.2-14.2,29.4-28.3,58.8-42.4,88.2-.6,1.2-1.2,2.3-2,3.8-12.5-4.2-24.8-8.3-37-12.4-21.1-7.1-42.2-14.3-63.4-21.3-1.8-.6-3.9-.6-5.8-.3-40.1,7.4-80.2,14.8-120.3,22.3-18.5,3.4-37.1,6.4-55.5,10.4-21.3,4.7-42.4,10.2-63.5,15.7-68.6,18-137.1,36.1-205.7,54.2-1.1.3-2.2.4-4.3.7,2.6-6.9,4.9-13.2,7.3-19.4,15.5-41.1,31.1-82.2,46.3-123.4,7.4-20.1,14.1-40.5,20.9-60.9.7-2,.6-4.7,0-6.6-17.8-48.8-35.7-97.5-53.5-146.3-1.8-5-3.6-10-5.6-15.5,28.9-4.8,57.4-9.6,86.7-14.4-17.3-61.1-34.6-121.8-52.1-183.8,32.8,16.3,64.5,32,96.9,48.1h0ZM193.4,563.6c.9-1.8,1.2-2.6,1.6-3.3,37.3-65.4,74.5-130.8,111.8-196.1,27-47.4,54.1-94.9,81.2-142.3,1.8-3.2,1.7-5.4-.3-8.4-8-11.7-15.7-23.6-23.5-35.4-6.8-10.2-13.6-20.4-20.9-31.4-19.2,45.7-38,90.6-57.1,136.1-23.4-22.6-46.2-44.8-69.1-67-.3.2-.7.4-1,.6,2.4,38.8,4.9,77.6,7.4,117.4-21.5-10.7-42.3-21-64.1-31.8,10.3,36.4,20.3,71.8,30.5,107.7-27.2,4.5-53.7,8.9-80.5,13.4.5,1.5.7,2.2,1,3,9.3,25.3,18,50.9,28.1,75.8,6.9,17,10.5,33.3,4,51.2-8.2,22.3-15.5,45-23.2,67.5-2.1,6-4.3,12-6.6,18.6,1.5-.2,2.1-.3,2.7-.5,19.3-5,38.6-10.1,58-15.2,25.6-6.7,51-14.1,76.9-19.8,26.8-5.9,54-10.1,81-15.2,37.3-7,74.6-13.8,111.8-21.2,10.3-2,19.7-1.3,29.5,2.5,14.1,5.5,28.7,9.7,43,14.7,3.5,1.2,4.8.3,6.3-3,9.4-19.9,19-39.6,28.5-59.4,5.1-10.6,10.1-21.2,15.6-32.7-124.5,24.8-247.9,49.3-372.4,74.1h0ZM676.7,230.2h-6.2c-67.3,0-134.6,0-201.9-.1-4.3,0-6.5,1.4-8.5,5-41.1,72.4-82.3,144.7-123.5,217-2.4,4.2-4.7,8.5-7.5,13.4,2.6-.3,4.3-.5,5.9-.8,34.3-6.8,68.5-13.7,102.8-20.5,52.9-10.6,105.7-21.1,158.6-31.8,1.8-.4,4.2-2.1,4.9-3.8,22.2-52,44.2-104.2,66.2-156.3,3-7.1,6-14.3,9.2-22.1h0Z"/>
</svg>